<?xml version="1.0" encoding="utf-8"?>
<!-- Generator: Adobe Illustrator 25.2.0, SVG Export Plug-In . SVG Version: 6.00 Build 0)  -->
<svg version="1.1" id="Layer_1" xmlns:serif="http://www.serif.com/" xmlns:space="preserve"
	 xmlns="http://www.w3.org/2000/svg" xmlns:xlink="http://www.w3.org/1999/xlink" x="0px" y="0px" viewBox="0 0 150 150"
	 style="enable-background:new 0 0 150 150;" xml:space="preserve">
<style type="text/css">
	.st0{fill:#706428;}
	.st1{fill:#B47300;}
	.st2{fill:#61A2D3;}
	.st3{fill:#9A8A39;}
	.st4{fill:#E39C03;}
	.st5{fill:#7AC6FF;}
	.st6{fill:#3B3B3B;fill-opacity:0.61;}
	.st7{fill:#4D4324;}
	.st8{fill:#755902;}
	.st9{fill:#748991;}
	.st10{fill:#8D5B03;}
	.st11{fill:#4A6068;}
	.st12{fill:#4E7989;}
	.st13{fill:none;}
	.st14{fill-rule:evenodd;clip-rule:evenodd;fill:#434343;}
	.st15{fill-rule:evenodd;clip-rule:evenodd;fill:#585248;}
	.st16{fill-rule:evenodd;clip-rule:evenodd;fill:#716758;}
	.st17{fill-rule:evenodd;clip-rule:evenodd;fill:#51350E;}
	.st18{fill-rule:evenodd;clip-rule:evenodd;fill:url(#SVGID_1_);}
	.st19{fill-rule:evenodd;clip-rule:evenodd;fill:#575656;}
	.st20{fill-rule:evenodd;clip-rule:evenodd;fill:#D8D5D5;}
	.st21{fill-rule:evenodd;clip-rule:evenodd;fill:#808080;}
	.st22{fill-rule:evenodd;clip-rule:evenodd;fill:#B5AFAF;}
	.st23{fill-rule:evenodd;clip-rule:evenodd;fill:#977000;}
	.st24{fill-rule:evenodd;clip-rule:evenodd;fill:#FFE9AC;}
	.st25{fill-rule:evenodd;clip-rule:evenodd;fill:#FFBF08;}
	.st26{fill:#FFFFFF;}
	.st27{fill-rule:evenodd;clip-rule:evenodd;fill:url(#SVGID_2_);}
	.st28{fill:#FF867F;stroke:#000000;stroke-miterlimit:10;}
</style>
<g transform="matrix(1,0,0,1,-8.841,-8.841)">
	<g id="Small-Cables-and-Pipes" transform="matrix(1.5625,0,0,1.5625,0,0)" serif:id="Small Cables and Pipes">
		<g transform="matrix(0.992546,-0.121869,0.121869,0.992546,-1075.63,610.44)">
			<path class="st0" d="M1228.2-390.2l-29.5-37.3l-7.3,5.7l31.6,39.2L1228.2-390.2z"/>
		</g>
		<g transform="matrix(0.992546,-0.121869,0.121869,0.992546,-1079.63,613.44)">
			<path class="st1" d="M1224.6-388.1l-28.7-36.3l-7.3,5.7l30.8,38.2L1224.6-388.1z"/>
		</g>
		<g transform="matrix(0.992546,-0.121869,0.121869,0.992546,-1083.63,616.44)">
			<path class="st2" d="M1221-386.1l-27.9-35.3l-7.3,5.7l30,37.2L1221-386.1z"/>
		</g>
		<g transform="matrix(0.992546,-0.121869,0.121869,0.992546,-1076.47,611.521)">
			<path class="st3" d="M1229.4-389.2l-31.4-37.9l-3.1,2.5l32,37.7L1229.4-389.2z"/>
		</g>
		<g transform="matrix(0.992546,-0.121869,0.121869,0.992546,-1080.47,613.521)">
			<path class="st4" d="M1225.8-388l-29.2-36.4l-3.2,2.5l29.9,36.1L1225.8-388z"/>
		</g>
		<g transform="matrix(0.992546,-0.121869,0.121869,0.992546,-1084.47,616.521)">
			<path class="st5" d="M1222.3-385.9l-28.4-35.4l-3.2,2.5l29,35.1L1222.3-385.9z"/>
		</g>
		<g transform="matrix(1,0,0,1,-1135.99,469.025)">
			<path class="st6" d="M1220.1-394.5c0.9-2,2.5-3.6,4.6-4.3c3.2-0.9,3.7,0,3.7,0L1198-429l-6.5,6.4L1220.1-394.5z"/>
		</g>
		<g transform="matrix(1,0,0,1,-1139.99,472.025)">
			<path class="st6" d="M1216.8-392.1c0.9-2,2.5-3.6,4.6-4.3c3.2-0.9,4.1,0,4.1,0l-29.8-29.2l-6.4,6.4L1216.8-392.1z"/>
		</g>
		<g transform="matrix(1,0,0,1,-1143.99,475.025)">
			<path class="st6" d="M1213.4-389.6c0.9-2,2.5-3.6,4.6-4.3c3.2-0.9,4.1,0,4.1,0l-29-28.3l-6.5,6.4L1213.4-389.6z"/>
		</g>
		<g transform="matrix(0.97437,0.224951,-0.224951,0.97437,52.692,44.179)">
			<path class="st7" d="M47.4,27.1c-1.8,0-3.2-1.8-3.2-3.9s1.5-3.9,3.2-3.9c1.8,0,3.2,1.8,3.2,3.9S49.2,27.1,47.4,27.1z"/>
		</g>
		<g transform="matrix(0.97437,0.224951,-0.224951,0.97437,52.692,44.179)">
			<path class="st8" d="M47.4,20.2c-1.3,0-2.3,1.4-2.3,3s1.1,3,2.3,3c1.3,0,2.3-1.4,2.3-3S48.7,20.2,47.4,20.2 M47.4,18.4
				c2.3,0,4.2,2.2,4.2,4.8c0,2.7-1.9,4.8-4.2,4.8s-4.2-2.2-4.2-4.8C43.2,20.5,45.1,18.4,47.4,18.4z"/>
		</g>
		<g transform="matrix(0.97437,0.224951,-0.224951,0.97437,48.692,47.179)">
			<path class="st9" d="M44.7,30.4c-1.8,0-3.2-1.8-3.2-3.9s1.5-3.9,3.2-3.9c1.8,0,3.2,1.8,3.2,3.9S46.5,30.4,44.7,30.4z"/>
		</g>
		<g transform="matrix(0.97437,0.224951,-0.224951,0.97437,48.692,47.179)">
			<path class="st10" d="M44.7,23.3c-1.3,0-2.3,1.4-2.3,3s1.1,3,2.3,3c1.3,0,2.3-1.4,2.3-3C47.1,24.7,46,23.3,44.7,23.3 M44.7,21.5
				c2.3,0,4.2,2.2,4.2,4.8c0,2.7-1.9,4.8-4.2,4.8s-4.2-2.2-4.2-4.8S42.4,21.5,44.7,21.5z"/>
		</g>
		<g transform="matrix(0.97437,0.224951,-0.224951,0.97437,44.692,50.179)">
			<path class="st11" d="M42,33.5c-1.8,0-3.2-1.8-3.2-3.9s1.5-3.9,3.2-3.9c1.8,0,3.2,1.8,3.2,3.9S43.8,33.5,42,33.5z"/>
		</g>
		<g transform="matrix(0.97437,0.224951,-0.224951,0.97437,44.692,50.179)">
			<path class="st12" d="M42,26.6c-1.3,0-2.3,1.4-2.3,3s1.1,3,2.3,3c1.3,0,2.3-1.4,2.3-3C44.3,28,43.3,26.6,42,26.6 M42,24.8
				c2.3,0,4.2,2.2,4.2,4.8c0,2.7-1.9,4.8-4.2,4.8s-4.2-2.2-4.2-4.8C37.8,26.9,39.7,24.8,42,24.8z"/>
		</g>
	</g>
	<rect id="Extents" x="66.6" y="62.5" class="st13" width="86.2" height="83.2"/>
	<rect id="Position" x="66.6" y="62.5" class="st13" width="86.2" height="83.2"/>
</g>
<g transform="matrix(1,0,0,1,6.90000000000001,-17.444)">
	<g transform="matrix(0.2,0,0,0.2,11.8609,-6.93784)">
		<path class="st14" d="M643.6,572.7l-30.1,18L182.6,233.2v-27.5l30.1-18l430.9,357.5V572.7z"/>
	</g>
	<g transform="matrix(0.2,0,0,0.2,11.8609,-6.93784)">
		<path class="st15" d="M212.8,187.6l430.9,357.5l-30.1,18l-431-357.5L212.8,187.6z"/>
	</g>
	<rect id="Position_1_" x="134.5" y="107.6" class="st13" width="6" height="3.6"/>
	<rect id="Extents_1_" x="48.4" y="30.5" class="st13" width="92.2" height="80.6"/>
</g>
<g transform="matrix(1,0,0,1,0.256,-13.468)">
	<g transform="matrix(0.2,0,0,0.2,8.5,-4.92702)">
		<path class="st14" d="M663.5,560.7l-91.8,54.8L140.9,258.1v-27.5l91.8-54.8l430.9,357.5v27.4H663.5z"/>
	</g>
	<g transform="matrix(0.2,0,0,0.2,8.5,-4.92702)">
		<path class="st16" d="M663.5,533.2L571.7,588L140.9,230.6l91.8-54.8L663.5,533.2z"/>
	</g>
	<g transform="matrix(1,0,0,1,-1.06581e-14,0.743105)">
		<path class="st17" d="M137.7,99.3v1.4l-14.9,8.9l-2.9-2.4v-1.4L137.7,99.3z M130,92.9v1.4l-14.9,8.9l-2.9-2.4v-1.4L130,92.9z
			 M122.2,86.4v1.4l-14.9,8.9l-2.9-2.4v-1.4L122.2,86.4z M114.4,80v1.4l-14.9,8.9l-2.9-2.4v-1.4L114.4,80z M106.6,73.5V75l-14.9,8.9
			l-2.9-2.4V80L106.6,73.5z M98.9,67.1v1.4L84,77.4L81.1,75v-1.4L98.9,67.1z M91.1,60.7v1.4L76.2,71l-2.9-2.4v-1.4L91.1,60.7z
			 M83.3,54.2v1.4l-14.9,8.9l-2.9-2.4v-1.4L83.3,54.2z M75.5,47.8v1.4L60.6,58l-2.9-2.4v-1.4L75.5,47.8z M67.8,41.3v1.4l-14.9,8.9
			L50,49.2v-1.4L67.8,41.3z M60,34.9v1.4l-14.9,8.9l-2.9-2.4v-1.4L60,34.9z"/>
	</g>
	<g transform="matrix(1,0,0,1,-1.06581e-14,-0.0068325)">
		
			<linearGradient id="SVGID_1_" gradientUnits="userSpaceOnUse" x1="-1803.408" y1="477.6809" x2="-1802.4015" y2="477.6809" gradientTransform="matrix(82.7737 67.8914 67.8914 -82.7737 116892.9844 162012.5)">
			<stop  offset="0" style="stop-color:#D3AB7E"/>
			<stop  offset="1" style="stop-color:#B08A61"/>
		</linearGradient>
		<path class="st18" d="M134.8,97.6l2.9,2.4l-14.9,8.9l-2.9-2.4L134.8,97.6z M127.1,91.2l2.9,2.4l-14.9,8.9l-2.9-2.4L127.1,91.2z
			 M119.3,84.7l2.9,2.4l-14.9,9l-2.9-2.4L119.3,84.7z M111.5,78.3l2.9,2.4l-14.9,8.9l-2.9-2.4L111.5,78.3z M103.7,71.8l2.9,2.4
			l-14.9,8.9l-2.9-2.4L103.7,71.8z M96,65.4l2.9,2.4L84,76.7l-2.9-2.4L96,65.4z M88.2,58.9l2.9,2.4l-14.9,8.9l-2.9-2.4L88.2,58.9z
			 M80.4,52.5l2.9,2.4l-14.8,9l-2.9-2.4L80.4,52.5z M72.6,46.1l2.9,2.4l-14.9,8.9L57.7,55L72.6,46.1z M64.9,39.6l2.9,2.4l-14.9,9
			L50,48.6L64.9,39.6z M57,33.2l2.9,2.4L45,44.5L42.1,42L57,33.2z"/>
	</g>
	<g transform="matrix(0.2,0,0,0.2,8.5,-4.92702)">
		<path class="st19" d="M171.9,198.9l430.9,357.5v11.2l-6.2,3.7l-431-357.4v-11.2L171.9,198.9z"/>
	</g>
	<g transform="matrix(0.2,0,0,0.2,8.5,-4.92702)">
		<path class="st20" d="M171.9,198.9l430.9,357.5l-6.2,3.7v11.2l-431-357.4v-11.2L171.9,198.9z"/>
	</g>
	<g transform="matrix(0.2,0,0,0.2,8.5,-4.92702)">
		<path class="st21" d="M165.6,202.6l430.9,357.5v11.2L165.6,213.9V202.6z"/>
	</g>
	<g transform="matrix(0.2,0,0,0.2,8.5,-4.92702)">
		<path class="st19" d="M208.3,177l430.9,357.6v11.2l-6.2,3.7L202.1,192v-11.2L208.3,177z"/>
	</g>
	<g transform="matrix(0.2,0,0,0.2,8.5,-4.92702)">
		<path class="st20" d="M208.3,177l430.9,357.6l-6.2,3.7v11.2L202.1,192v-11.2L208.3,177z"/>
	</g>
	<g transform="matrix(0.2,0,0,0.2,8.5,-4.92702)">
		<path class="st21" d="M202.1,180.9L633,538.3v11.2L202.1,192V180.9z"/>
	</g>
	<rect id="Position_2_" x="122.8" y="107.3" class="st13" width="18.3" height="11"/>
	<rect id="Extents_2_" x="36.7" y="30.3" class="st13" width="104.6" height="88"/>
</g>
<g transform="matrix(1,0,0,1,-6.112,-10.552)">
	<g transform="matrix(0.2,0,0,0.2,13.0376,-6.7477)">
		<path class="st14" d="M580.9,610.1l-25.1,15L125,267.6v-27.5l23.5-14.1l432.4,356.6V610.1z"/>
	</g>
	<g transform="matrix(0.2,0,0,0.2,13.0376,-6.7477)">
		<path class="st16" d="M150.1,225.2L581,582.6l-25.1,15L125,240.1L150.1,225.2z"/>
	</g>
	<g transform="matrix(0.2,0,0,0.2,13.0376,-6.7477)">
		<path class="st21" d="M549.1,560.1l4.5,3.7V575l-4.7,2.8l-4.5-3.7v-11.2L549.1,560.1z"/>
	</g>
	<g transform="matrix(0.2,0,0,0.2,13.0376,-6.7477)">
		<path class="st22" d="M544.5,574.2V563l4.5,3.7v11.2L544.5,574.2z"/>
	</g>
	<g transform="matrix(0.2,0,0,0.2,13.0376,-6.7477)">
		<path class="st21" d="M150.7,229.5l4.5,3.7v11.2l-4.7,2.8l-4.5-3.7v-11.2L150.7,229.5z"/>
	</g>
	<g transform="matrix(0.2,0,0,0.2,13.0376,-6.7477)">
		<path class="st22" d="M146,243.6v-11.2l4.5,3.7v11.2L146,243.6z"/>
	</g>
	<g transform="matrix(0.2,0,0,0.2,13.0376,-6.7477)">
		<path class="st21" d="M277.8,335l4.5,3.7v11.2l-4.7,2.8l-4.5-3.7v-11.2L277.8,335z"/>
	</g>
	<g transform="matrix(0.2,0,0,0.2,13.0376,-6.7477)">
		<path class="st22" d="M273.1,349v-11.2l4.5,3.7v11.2L273.1,349z"/>
	</g>
	<g transform="matrix(0.2,0,0,0.2,13.0376,-6.7477)">
		<path class="st21" d="M419.2,452.3l4.5,3.7v11.2L419,470l-4.5-3.7v-11.2L419.2,452.3z"/>
	</g>
	<g transform="matrix(0.2,0,0,0.2,13.0376,-6.7477)">
		<path class="st22" d="M414.5,466.3v-11.2l4.5,3.7V470L414.5,466.3z"/>
	</g>
	<g transform="matrix(0.2,0,0,0.2,13.0376,-6.7477)">
		<path class="st23" d="M139.1,208.8L568,564.6v11.2l-4.7,2.8L134.4,222.8v-11.2L139.1,208.8z"/>
	</g>
	<g transform="matrix(0.2,0,0,0.2,13.0376,-6.7477)">
		<path class="st24" d="M139.1,208.8L568,564.6l-4.7,2.8v11.2L134.4,222.8v-11.2L139.1,208.8z"/>
	</g>
	<g transform="matrix(0.2,0,0,0.2,13.0376,-6.7477)">
		<path class="st25" d="M134.4,211.6l428.9,355.9v11.2L134.4,222.8V211.6z"/>
	</g>
	<rect id="Position_3_" x="124.2" y="115.3" class="st13" width="5" height="3"/>
	<rect id="Extents_3_" x="38" y="35" class="st13" width="91.2" height="83.2"/>
</g>
<g transform="matrix(1,0,0,1,-1.1095,-12.658)">
	<g transform="matrix(1,0,0,1,-15692.6,-2392.75)">
		<path class="st26" d="M15767.2,2452.1l2.5,11.8l3.3-1.9l12.1,11.2l5.6-3.2l-11.9-10.8l3.8-2.3L15767.2,2452.1z"/>
	</g>
	<rect id="Position_4_" x="121.7" y="107.9" class="st13" width="18.3" height="11"/>
	<rect id="Extents_4_" x="35.6" y="30.9" class="st13" width="104.6" height="88"/>
</g>
<g transform="matrix(1,0,0,1,-8.843,-8.918)">
	<g transform="matrix(0.2,0,0,0.2,13.0376,-6.7477)">
		<path class="st14" d="M569.6,616.9l-25.1,15L113.7,274.4V247l23.5-14.1l432.4,356.6V616.9z"/>
	</g>
	<g transform="matrix(0.2,0,0,0.2,13.0376,-6.7477)">
		<path class="st16" d="M138.6,232l430.9,357.5l-25.1,15L113.7,247L138.6,232z"/>
	</g>
	<g transform="matrix(0.2,0,0,0.2,13.0376,-6.7477)">
		<path class="st21" d="M537.8,566.9l4.5,3.7v11.2l-4.7,2.8l-4.5-3.7v-11.2L537.8,566.9z"/>
	</g>
	<g transform="matrix(0.2,0,0,0.2,13.0376,-6.7477)">
		<path class="st22" d="M533,581v-11.2l4.5,3.7v11.2L533,581z"/>
	</g>
	<g transform="matrix(0.2,0,0,0.2,13.0376,-6.7477)">
		<path class="st21" d="M139.2,236.3l4.5,3.7v11.2L139,254l-4.5-3.7v-11.2L139.2,236.3z"/>
	</g>
	<g transform="matrix(0.2,0,0,0.2,13.0376,-6.7477)">
		<path class="st22" d="M134.6,250.4v-11.2l4.5,3.7v11.2L134.6,250.4z"/>
	</g>
	<g transform="matrix(0.2,0,0,0.2,13.0376,-6.7477)">
		<path class="st21" d="M266.3,341.8l4.5,3.7v11.2l-4.7,2.8l-4.5-3.7v-11.2L266.3,341.8z"/>
	</g>
	<g transform="matrix(0.2,0,0,0.2,13.0376,-6.7477)">
		<path class="st22" d="M261.7,355.9v-11.2l4.5,3.7v11.2L261.7,355.9z"/>
	</g>
	<g transform="matrix(0.2,0,0,0.2,13.0376,-6.7477)">
		<path class="st21" d="M407.8,459.1l4.5,3.7V474l-4.7,2.8l-4.5-3.7v-11.2L407.8,459.1z"/>
	</g>
	<g transform="matrix(0.2,0,0,0.2,13.0376,-6.7477)">
		<path class="st22" d="M403.1,473.2V462l4.5,3.7v11.2L403.1,473.2z"/>
	</g>
	<g transform="matrix(0.2,0,0,0.2,13.0376,-6.7477)">
		<path class="st23" d="M127.6,215.6l428.9,355.9v11.2l-4.7,2.8L123,229.6v-11.2L127.6,215.6z"/>
	</g>
	<g transform="matrix(0.2,0,0,0.2,13.0376,-6.7477)">
		<path class="st24" d="M127.6,215.6l428.9,355.9l-4.7,2.8v11.2L123,229.6v-11.2L127.6,215.6z"/>
	</g>
	<g transform="matrix(0.2,0,0,0.2,13.0376,-6.7477)">
		<path class="st25" d="M123,218.4l428.9,355.9v11.2L123,229.6V218.4z"/>
	</g>
	<rect id="Position_5_" x="122" y="116.6" class="st13" width="5" height="3"/>
	<rect id="Extents_5_" x="35.7" y="36.3" class="st13" width="91.2" height="83.2"/>
</g>
<g transform="matrix(1,0,0,1,-15.211,-4.21400000000001)">
	<g transform="matrix(0.2,0,0,0.2,8.5,-4.92702)">
		<path class="st14" d="M599.1,599.3l-91.8,54.8L76.4,296.7v-27.5l91.8-54.8l430.9,357.5V599.3L599.1,599.3z"/>
	</g>
	<g transform="matrix(0.2,0,0,0.2,8.5,-4.92702)">
		<path class="st16" d="M599.1,571.7l-91.8,54.8L76.4,269.2l91.8-54.8L599.1,571.7z"/>
	</g>
	<g transform="matrix(1,0,0,1,-1.06581e-14,0.743105)">
		<path class="st17" d="M124.8,107v1.4l-14.9,8.9l-2.9-2.4v-1.4L124.8,107z M117.1,100.6v1.4l-14.9,8.9l-2.9-2.4V107L117.1,100.6z
			 M109.2,94.1v1.4l-14.9,8.9l-2.9-2.4v-1.4L109.2,94.1z M101.5,87.7v1.4L86.6,98l-2.9-2.4v-1.4L101.5,87.7z M93.7,81.3v1.4
			l-14.9,8.9l-2.9-2.4v-1.4L93.7,81.3z M86,74.8v1.4l-14.9,8.9l-2.9-2.4v-1.4L86,74.8z M78.1,68.4v1.4l-14.9,8.9l-2.9-2.4v-1.4
			L78.1,68.4z M70.4,61.9v1.4l-14.9,8.9l-2.9-2.4v-1.4L70.4,61.9z M62.6,55.5v1.4l-14.9,8.9l-2.9-2.4V62L62.6,55.5z M54.9,49v1.4
			L40,59.3l-2.9-2.4v-1.4L54.9,49z M47,42.6V44l-14.8,8.9l-2.9-2.4V49L47,42.6z"/>
	</g>
	<g transform="matrix(1,0,0,1,-1.06581e-14,-0.0068325)">
		
			<linearGradient id="SVGID_2_" gradientUnits="userSpaceOnUse" x1="-1757.0074" y1="468.4251" x2="-1756.0011" y2="468.4251" gradientTransform="matrix(82.7737 67.8914 67.8914 -82.7737 113667.75 158103.8906)">
			<stop  offset="0" style="stop-color:#D3AB7E"/>
			<stop  offset="1" style="stop-color:#B08A61"/>
		</linearGradient>
		<path class="st27" d="M121.9,105.3l2.9,2.4l-14.9,8.9l-2.9-2.4L121.9,105.3z M114.2,98.9l2.9,2.4l-14.9,8.9l-2.9-2.4L114.2,98.9z
			 M106.3,92.4l2.9,2.4l-14.9,8.9l-2.9-2.4L106.3,92.4z M98.6,86l2.9,2.4l-14.9,8.9l-2.9-2.4L98.6,86z M90.8,79.5l2.9,2.4l-14.9,8.9
			l-2.9-2.4L90.8,79.5z M83.1,73.1l2.9,2.4l-14.9,8.9L68.2,82L83.1,73.1z M75.2,66.7l2.9,2.4l-14.8,9l-2.9-2.4L75.2,66.7z
			 M67.5,60.2l2.9,2.4l-14.9,8.9l-2.9-2.4L67.5,60.2z M59.7,53.8l2.9,2.4l-14.9,9l-2.9-2.4L59.7,53.8z M52,47.3l2.9,2.4L40,58.6
			l-2.9-2.4L52,47.3z M44.1,40.9l2.9,2.4l-14.9,8.9l-2.9-2.4L44.1,40.9z"/>
	</g>
	<g transform="matrix(0.2,0,0,0.2,8.5,-4.92702)">
		<path class="st19" d="M107.4,237.4l430.9,357.5v11.2l-6.2,3.7l-431-357.4v-11.2L107.4,237.4z"/>
	</g>
	<g transform="matrix(0.2,0,0,0.2,8.5,-4.92702)">
		<path class="st20" d="M107.4,237.4l430.9,357.5l-6.2,3.7v11.2l-431-357.4v-11.2L107.4,237.4z"/>
	</g>
	<g transform="matrix(0.2,0,0,0.2,8.5,-4.92702)">
		<path class="st21" d="M101.1,241.2L532,598.7v11.2L101.1,252.4V241.2z"/>
	</g>
	<g transform="matrix(0.2,0,0,0.2,8.5,-4.92702)">
		<path class="st19" d="M143.8,215.7l430.9,357.5v11.2l-6.2,3.7L137.6,230.7v-11.2L143.8,215.7z"/>
	</g>
	<g transform="matrix(0.2,0,0,0.2,8.5,-4.92702)">
		<path class="st20" d="M143.8,215.7l430.9,357.5l-6.2,3.7V588L137.6,230.7v-11.2L143.8,215.7z"/>
	</g>
	<g transform="matrix(0.2,0,0,0.2,8.5,-4.92702)">
		<path class="st21" d="M137.6,219.4l430.9,357.5V588L137.6,230.7V219.4z"/>
	</g>
	<rect id="Position_6_" x="109.9" y="115" class="st13" width="18.3" height="11"/>
	<rect id="Extents_6_" x="23.8" y="38" class="st13" width="104.6" height="88"/>
</g>
<g transform="matrix(1,0,0,1,-13.8455,-5.03800000000001)">
	<g transform="matrix(1,0,0,1,-15692.6,-2392.75)">
		<path class="st26" d="M15781.7,2481.9l-2.5-11.7l-3.3,1.9l-12.3-11.1l-5.5,3.3l11.9,10.7l-3.8,2.3L15781.7,2481.9z"/>
	</g>
	<rect id="Position_7_" x="111.1" y="114.3" class="st13" width="18.3" height="11"/>
	<rect id="Extents_7_" x="24.9" y="37.3" class="st13" width="104.6" height="88"/>
</g>
<g transform="matrix(1,0,0,1,-21.856,-0.239000000000001)">
	<g transform="matrix(0.2,0,0,0.2,11.8609,-6.93784)">
		<path class="st14" d="M523.7,644.4l-30.1,18L62.7,304.9v-27.6l30.1-18l430.9,357.6V644.4z"/>
	</g>
	<g transform="matrix(0.2,0,0,0.2,11.8609,-6.93784)">
		<path class="st15" d="M92.8,259.3l430.9,357.6l-30.1,18L62.7,277.3L92.8,259.3z"/>
	</g>
	<rect id="Position_8_" x="110.6" y="121.9" class="st13" width="6" height="3.6"/>
	<rect id="Extents_8_" x="24.4" y="44.9" class="st13" width="92.2" height="80.6"/>
</g>
<g>
	<path class="st28" d="M115,34.125V8.641C115,6.82,116.294,5,117.589,5l0,0h2.523v29.125H115z"/>
	<path class="st28" d="M123.642,34.125v-5.178h15.533v-6.472h-11.65c-1.942,0-3.883-1.942-3.883-3.883l0,0V8.883
		c0-1.942,1.942-3.883,3.883-3.883l0,0H145v5.178h-15.533v6.472h11.65c1.942,0,3.883,1.942,3.883,3.883l0,0v9.708
		c0,1.942-1.942,3.883-3.883,3.883l0,0L123.642,34.125L123.642,34.125z"/>
</g>
</svg>
