<?xml version="1.0" encoding="utf-8"?>
<!-- Generator: Adobe Illustrator 25.2.0, SVG Export Plug-In . SVG Version: 6.00 Build 0)  -->
<svg version="1.1" id="Layer_1" xmlns:serif="http://www.serif.com/" xmlns:space="preserve"
	 xmlns="http://www.w3.org/2000/svg" xmlns:xlink="http://www.w3.org/1999/xlink" x="0px" y="0px" viewBox="0 0 150 150"
	 style="enable-background:new 0 0 150 150;" xml:space="preserve">
<style type="text/css">
	.st0{fill:#706428;}
	.st1{fill:#B47300;}
	.st2{fill:#61A2D3;}
	.st3{fill:#9A8A39;}
	.st4{fill:#E39C03;}
	.st5{fill:#7AC6FF;}
	.st6{fill:#3B3B3B;fill-opacity:0.61;}
	.st7{fill:#4D4324;}
	.st8{fill:#755902;}
	.st9{fill:#748991;}
	.st10{fill:#8D5B03;}
	.st11{fill:#4A6068;}
	.st12{fill:#4E7989;}
	.st13{fill:none;}
	.st14{fill-rule:evenodd;clip-rule:evenodd;fill:#434343;}
	.st15{fill-rule:evenodd;clip-rule:evenodd;fill:#585248;}
	.st16{fill-rule:evenodd;clip-rule:evenodd;fill:#716758;}
	.st17{fill-rule:evenodd;clip-rule:evenodd;fill:#51350E;}
	.st18{fill-rule:evenodd;clip-rule:evenodd;fill:url(#SVGID_1_);}
	.st19{fill-rule:evenodd;clip-rule:evenodd;fill:#575656;}
	.st20{fill-rule:evenodd;clip-rule:evenodd;fill:#D8D5D5;}
	.st21{fill-rule:evenodd;clip-rule:evenodd;fill:#808080;}
	.st22{fill-rule:evenodd;clip-rule:evenodd;fill:#B5AFAF;}
	.st23{fill-rule:evenodd;clip-rule:evenodd;fill:#977000;}
	.st24{fill-rule:evenodd;clip-rule:evenodd;fill:#FFE9AC;}
	.st25{fill-rule:evenodd;clip-rule:evenodd;fill:#FFBF08;}
	.st26{fill:#FFFFFF;}
	.st27{fill:#FF867F;stroke:#000000;stroke-miterlimit:10;}
</style>
<g transform="matrix(1,0,0,1,-15.209,-15.209)">
	<g id="Small-Cables-and-Pipes" transform="matrix(1.5625,0,0,1.5625,0,0)" serif:id="Small Cables and Pipes">
		<g transform="matrix(0.992546,-0.121869,0.121869,0.992546,-1075.63,610.44)">
			<path class="st0" d="M1233.7-385.6l-32.9-41.7l-8.2,6.4l35.3,43.8L1233.7-385.6z"/>
		</g>
		<g transform="matrix(0.992546,-0.121869,0.121869,0.992546,-1079.63,613.44)">
			<path class="st1" d="M1229.2-383l-32-40.6l-8.2,6.4l34.4,42.7L1229.2-383z"/>
		</g>
		<g transform="matrix(0.992546,-0.121869,0.121869,0.992546,-1083.63,616.44)">
			<path class="st2" d="M1224.6-380.4l-31.1-39.5l-8.2,6.4l33.5,41.6L1224.6-380.4z"/>
		</g>
		<g transform="matrix(0.992546,-0.121869,0.121869,0.992546,-1076.47,611.521)">
			<path class="st3" d="M1234.9-384.4l-35-42.4l-3.5,2.8l35.8,42.2L1234.9-384.4z"/>
		</g>
		<g transform="matrix(0.992546,-0.121869,0.121869,0.992546,-1080.47,613.521)">
			<path class="st4" d="M1230.5-382.9l-32.6-40.7l-3.6,2.8l33.3,40.4L1230.5-382.9z"/>
		</g>
		<g transform="matrix(0.992546,-0.121869,0.121869,0.992546,-1084.47,616.521)">
			<path class="st5" d="M1225.9-380.2l-31.7-39.5l-3.5,2.8l32.4,39.3L1225.9-380.2z"/>
		</g>
		<g transform="matrix(1,0,0,1,-1135.99,469.025)">
			<path class="st6" d="M1224.7-390.6c1-2.3,2.8-4,5.2-4.8c3.6-1,4.2,0,4.2,0l-34-33.6l-7.3,7.2L1224.7-390.6z"/>
		</g>
		<g transform="matrix(1,0,0,1,-1139.99,472.025)">
			<path class="st6" d="M1220.5-387.5c1-2.3,2.8-4,5.2-4.8c3.6-1,4.6,0,4.6,0l-33.3-32.6l-7.1,7.2L1220.5-387.5z"/>
		</g>
		<g transform="matrix(1,0,0,1,-1143.99,475.025)">
			<path class="st6" d="M1216.3-384.3c1-2.3,2.8-4,5.2-4.8c3.6-1,4.6,0,4.6,0l-32.4-31.5l-7.3,7.2L1216.3-384.3z"/>
		</g>
		<g transform="matrix(0.97437,0.224951,-0.224951,0.97437,52.692,44.179)">
			<path class="st7" d="M54,30.5c-2,0-3.6-2-3.6-4.4s1.6-4.4,3.6-4.4s3.6,2,3.6,4.4S56,30.5,54,30.5z"/>
		</g>
		<g transform="matrix(0.97437,0.224951,-0.224951,0.97437,52.692,44.179)">
			<path class="st8" d="M54,22.7c-1.4,0-2.6,1.6-2.6,3.4s1.2,3.4,2.6,3.4s2.6-1.6,2.6-3.4C56.6,24.3,55.4,22.7,54,22.7 M54,20.7
				c2.6,0,4.7,2.4,4.7,5.4s-2.1,5.4-4.7,5.4c-2.6,0-4.7-2.4-4.7-5.4S51.4,20.7,54,20.7z"/>
		</g>
		<g transform="matrix(0.97437,0.224951,-0.224951,0.97437,48.692,47.179)">
			<path class="st9" d="M50.6,34.5c-2,0-3.6-2-3.6-4.4s1.6-4.4,3.6-4.4s3.6,2,3.6,4.4S52.6,34.5,50.6,34.5z"/>
		</g>
		<g transform="matrix(0.97437,0.224951,-0.224951,0.97437,48.692,47.179)">
			<path class="st10" d="M50.6,26.8c-1.4,0-2.6,1.6-2.6,3.4s1.2,3.4,2.6,3.4s2.6-1.6,2.6-3.4C53.2,28.3,52,26.8,50.6,26.8
				 M50.6,24.7c2.6,0,4.7,2.4,4.7,5.4s-2.1,5.4-4.7,5.4c-2.6,0-4.7-2.4-4.7-5.4C45.9,27.1,48,24.7,50.6,24.7z"/>
		</g>
		<g transform="matrix(0.97437,0.224951,-0.224951,0.97437,44.692,50.179)">
			<path class="st11" d="M47.2,38.5c-2,0-3.6-2-3.6-4.4s1.6-4.4,3.6-4.4s3.6,2,3.6,4.4C50.9,36.6,49.2,38.5,47.2,38.5z"/>
		</g>
		<g transform="matrix(0.97437,0.224951,-0.224951,0.97437,44.692,50.179)">
			<path class="st12" d="M47.2,30.8c-1.4,0-2.6,1.6-2.6,3.4c0,1.8,1.2,3.4,2.6,3.4c1.4,0,2.6-1.6,2.6-3.4
				C49.9,32.3,48.7,30.8,47.2,30.8 M47.2,28.7c2.6,0,4.7,2.4,4.7,5.4s-2.1,5.4-4.7,5.4c-2.6,0-4.7-2.4-4.7-5.4
				C42.6,31.1,44.7,28.7,47.2,28.7z"/>
		</g>
	</g>
	<rect id="Extents" x="66.4" y="62.4" class="st13" width="96.4" height="93"/>
	<rect id="Position" x="66.4" y="62.4" class="st13" width="96.4" height="93"/>
</g>
<g transform="matrix(1,0,0,1,-5.83599999999999,-20.002)">
	<g transform="matrix(0.2,0,0,0.2,11.8609,-6.93784)">
		<path class="st14" d="M661.2,613.5l-33.6,20.1L146.4,234.5v-30.7l33.6-20.1l481.2,399.2V613.5z"/>
	</g>
	<g transform="matrix(0.2,0,0,0.2,11.8609,-6.93784)">
		<path class="st15" d="M180,183.7l481.2,399.2L627.6,603L146.4,203.8L180,183.7z"/>
	</g>
	<rect id="Position_1_" x="137.4" y="115.8" class="st13" width="6.7" height="4"/>
	<rect id="Extents_1_" x="41.1" y="29.8" class="st13" width="103" height="90"/>
</g>
<g transform="matrix(1,0,0,1,-12.48,-16.026)">
	<g transform="matrix(0.2,0,0,0.2,8.5,-4.92702)">
		<path class="st14" d="M677.6,603.7L575.2,665L94,265.8v-30.7l102.4-61.3L677.6,573V603.7z"/>
	</g>
	<g transform="matrix(0.2,0,0,0.2,8.5,-4.92702)">
		<path class="st16" d="M677.6,573l-102.4,61.3L94,235.1l102.4-61.3L677.6,573z"/>
	</g>
	<g transform="matrix(1,0,0,1,-1.06581e-14,0.743105)">
		<path class="st17" d="M140.1,107v1.5l-16.6,9.9l-3.3-2.7v-1.5L140.1,107z M131.5,99.8v1.5l-16.6,9.9l-3.3-2.7V107L131.5,99.8z
			 M122.8,92.7v1.5l-16.6,9.9l-3.3-2.7v-1.5L122.8,92.7z M114.1,85.5V87l-16.6,9.9l-3.3-2.7v-1.5L114.1,85.5z M105.4,78.3v1.5
			l-16.6,9.9L85.5,87v-1.5L105.4,78.3z M96.7,71.1v1.5l-16.6,9.9l-3.3-2.7v-1.5L96.7,71.1z M88,63.9v1.5l-16.6,9.9l-3.3-2.7v-1.5
			L88,63.9z M79.4,56.7v1.5l-16.6,9.9l-3.3-2.7v-1.5L79.4,56.7z M70.7,49.5V51L54.1,61l-3.3-2.7v-1.5L70.7,49.5z M62,42.3v1.5
			l-16.6,9.9L42.1,51v-1.5L62,42.3z M53.3,35.1v1.5l-16.6,9.9l-3.3-2.7v-1.5L53.3,35.1z"/>
	</g>
	<g transform="matrix(1,0,0,1,-1.06581e-14,-0.0068325)">
		
			<linearGradient id="SVGID_1_" gradientUnits="userSpaceOnUse" x1="-1178.9342" y1="-2.4376" x2="-1177.9844" y2="-2.4376" gradientTransform="matrix(97.9242 80.318 -80.318 97.9242 115291.1484 94965.9688)">
			<stop  offset="0" style="stop-color:#D3AB7E"/>
			<stop  offset="1" style="stop-color:#B08A61"/>
		</linearGradient>
		<path class="st18" d="M136.9,105.1l3.3,2.7l-16.6,9.9l-3.3-2.7L136.9,105.1z M128.2,97.9l3.3,2.7l-16.6,9.9l-3.3-2.7L128.2,97.9z
			 M119.5,90.7l3.3,2.7l-16.6,9.9l-3.3-2.7L119.5,90.7z M110.8,83.5l3.3,2.7l-16.6,9.9l-3.3-2.7L110.8,83.5z M102.1,76.3l3.3,2.7
			L88.8,89l-3.3-2.7L102.1,76.3z M93.5,69.1l3.3,2.7l-16.6,9.9L76.9,79L93.5,69.1z M84.8,61.9l3.3,2.7l-16.6,9.9l-3.3-2.7L84.8,61.9
			z M76.1,54.7l3.3,2.7l-16.6,9.9l-3.3-2.7L76.1,54.7z M67.4,47.5l3.3,2.7l-16.6,9.9l-3.3-2.7L67.4,47.5z M58.7,40.3L62,43L45.4,53
			l-3.3-2.7L58.7,40.3z M50.1,33.2l3.3,2.7l-16.6,9.9l-3.3-2.7L50.1,33.2z"/>
	</g>
	<g transform="matrix(0.2,0,0,0.2,8.5,-4.92702)">
		<path class="st19" d="M128.6,199.7l481.2,399.2v12.5l-7,4.2L121.6,216.4v-12.5L128.6,199.7z"/>
	</g>
	<g transform="matrix(0.2,0,0,0.2,8.5,-4.92702)">
		<path class="st20" d="M128.6,199.7l481.2,399.2l-7,4.2v12.5L121.6,216.4v-12.5L128.6,199.7z"/>
	</g>
	<g transform="matrix(0.2,0,0,0.2,8.5,-4.92702)">
		<path class="st21" d="M121.6,203.9l481.2,399.2v12.5L121.6,216.4V203.9z"/>
	</g>
	<g transform="matrix(0.2,0,0,0.2,8.5,-4.92702)">
		<path class="st19" d="M169.3,175.4l481.2,399.2v12.5l-7,4.2L162.3,192.1v-12.5L169.3,175.4z"/>
	</g>
	<g transform="matrix(0.2,0,0,0.2,8.5,-4.92702)">
		<path class="st20" d="M169.3,175.4l481.2,399.2l-7,4.2v12.5L162.3,192.1v-12.5L169.3,175.4z"/>
	</g>
	<g transform="matrix(0.2,0,0,0.2,8.5,-4.92702)">
		<path class="st21" d="M162.3,179.6l481.2,399.2v12.5L162.3,192.1V179.6z"/>
	</g>
	<rect id="Position_2_" x="123.5" y="115.8" class="st13" width="20.5" height="12.3"/>
	<rect id="Extents_2_" x="27.3" y="29.8" class="st13" width="116.7" height="98.2"/>
</g>
<g transform="matrix(1,0,0,1,-18.848,-13.11)">
	<g transform="matrix(0.2,0,0,0.2,13.0376,-6.7477)">
		<path class="st14" d="M584.3,659.5l-28,16.7L75.2,277.1v-30.7l26.3-15.8l482.8,398.2V659.5z"/>
	</g>
	<g transform="matrix(0.2,0,0,0.2,13.0376,-6.7477)">
		<path class="st16" d="M103.1,229.7l481.2,399.2l-28,16.7L75.2,246.4L103.1,229.7z"/>
	</g>
	<g transform="matrix(0.2,0,0,0.2,13.0376,-6.7477)">
		<path class="st21" d="M548.8,603.7l5,4.2v12.5l-5.3,3.1l-5-4.2v-12.5L548.8,603.7z"/>
	</g>
	<g transform="matrix(0.2,0,0,0.2,13.0376,-6.7477)">
		<path class="st22" d="M543.5,619.4v-12.5l5,4.2v12.5L543.5,619.4z"/>
	</g>
	<g transform="matrix(0.2,0,0,0.2,13.0376,-6.7477)">
		<path class="st21" d="M103.8,234.6l5,4.2v12.5l-5.3,3.1l-5-4.2v-12.5L103.8,234.6z"/>
	</g>
	<g transform="matrix(0.2,0,0,0.2,13.0376,-6.7477)">
		<path class="st22" d="M98.5,250.2v-12.5l5,4.2v12.5L98.5,250.2z"/>
	</g>
	<g transform="matrix(0.2,0,0,0.2,13.0376,-6.7477)">
		<path class="st21" d="M245.7,352.3l5,4.2V369l-5.3,3.1l-5-4.2v-12.5L245.7,352.3z"/>
	</g>
	<g transform="matrix(0.2,0,0,0.2,13.0376,-6.7477)">
		<path class="st22" d="M240.5,368v-12.5l5,4.2v12.5L240.5,368z"/>
	</g>
	<g transform="matrix(0.2,0,0,0.2,13.0376,-6.7477)">
		<path class="st21" d="M403.7,483.3l5,4.2V500l-5.3,3.1l-5-4.2v-12.5L403.7,483.3z"/>
	</g>
	<g transform="matrix(0.2,0,0,0.2,13.0376,-6.7477)">
		<path class="st22" d="M398.4,499v-12.5l5,4.2v12.5L398.4,499z"/>
	</g>
	<g transform="matrix(0.2,0,0,0.2,13.0376,-6.7477)">
		<path class="st23" d="M90.9,211.3l479,397.4v12.5l-5.3,3.1L85.6,227v-12.5L90.9,211.3z"/>
	</g>
	<g transform="matrix(0.2,0,0,0.2,13.0376,-6.7477)">
		<path class="st24" d="M90.9,211.3l479,397.4l-5.3,3.1v12.5L85.6,227v-12.5L90.9,211.3z"/>
	</g>
	<g transform="matrix(0.2,0,0,0.2,13.0376,-6.7477)">
		<path class="st25" d="M85.6,214.5l479,397.4v12.5L85.6,227V214.5z"/>
	</g>
	<rect id="Position_3_" x="124.3" y="125.2" class="st13" width="5.6" height="3.3"/>
	<rect id="Extents_3_" x="28.1" y="35.5" class="st13" width="101.8" height="93"/>
</g>
<g transform="matrix(1,0,0,1,-13.8455,-15.216)">
	<g transform="matrix(1,0,0,1,-15692.6,-2392.75)">
		<path class="st26" d="M15762.1,2455.2l2.9,13.1l3.7-2.2l13.5,12.5l6.3-3.6l-13.3-12l4.3-2.5L15762.1,2455.2z"/>
	</g>
	<rect id="Position_4_" x="122.1" y="116.7" class="st13" width="20.5" height="12.3"/>
	<rect id="Extents_4_" x="25.9" y="30.7" class="st13" width="116.7" height="98.3"/>
</g>
<g transform="matrix(1,0,0,1,-21.856,-10.417)">
	<g transform="matrix(0.2,0,0,0.2,11.8609,-6.93784)">
		<path class="st14" d="M577.3,663.8l-33.6,20.1L62.5,284.7V254l33.6-20.1L577.3,633V663.8z"/>
	</g>
	<g transform="matrix(0.2,0,0,0.2,11.8609,-6.93784)">
		<path class="st15" d="M96.1,233.9L577.3,633l-33.6,20.1L62.5,254L96.1,233.9z"/>
	</g>
	<rect id="Position_5_" x="120.6" y="125.8" class="st13" width="6.7" height="4"/>
	<rect id="Extents_5_" x="24.4" y="39.8" class="st13" width="103" height="90"/>
</g>
<g>
	<path class="st27" d="M115,34.125V8.641C115,6.82,116.294,5,117.589,5l0,0h2.523v29.125H115z"/>
	<path class="st27" d="M123.642,34.125v-5.178h15.533v-6.472h-11.65c-1.942,0-3.883-1.942-3.883-3.883l0,0V8.883
		c0-1.942,1.942-3.883,3.883-3.883l0,0H145v5.178h-15.533v6.472h11.65c1.942,0,3.883,1.942,3.883,3.883l0,0v9.708
		c0,1.942-1.942,3.883-3.883,3.883l0,0H123.642z"/>
</g>
</svg>
