<?xml version="1.0" encoding="utf-8"?>
<!-- Generator: Adobe Illustrator 25.2.0, SVG Export Plug-In . SVG Version: 6.00 Build 0)  -->
<svg version="1.1" id="Layer_1" xmlns:serif="http://www.serif.com/" xmlns:space="preserve"
	 xmlns="http://www.w3.org/2000/svg" xmlns:xlink="http://www.w3.org/1999/xlink" x="0px" y="0px" viewBox="0 0 150 150"
	 style="enable-background:new 0 0 150 150;" xml:space="preserve">
<style type="text/css">
	.st0{fill:#706428;}
	.st1{fill:#B47300;}
	.st2{fill:#61A2D3;}
	.st3{fill:#9A8A39;}
	.st4{fill:#E39C03;}
	.st5{fill:#7AC6FF;}
	.st6{fill:#3B3B3B;fill-opacity:0.61;}
	.st7{fill:#4D4324;}
	.st8{fill:#755902;}
	.st9{fill:#748991;}
	.st10{fill:#8D5B03;}
	.st11{fill:#4A6068;}
	.st12{fill:#4E7989;}
	.st13{fill:none;}
	.st14{fill-rule:evenodd;clip-rule:evenodd;fill:#434343;}
	.st15{fill-rule:evenodd;clip-rule:evenodd;fill:#585248;}
	.st16{fill-rule:evenodd;clip-rule:evenodd;fill:#716758;}
	.st17{fill-rule:evenodd;clip-rule:evenodd;fill:#51350E;}
	.st18{fill-rule:evenodd;clip-rule:evenodd;fill:url(#SVGID_1_);}
	.st19{fill-rule:evenodd;clip-rule:evenodd;fill:#575656;}
	.st20{fill-rule:evenodd;clip-rule:evenodd;fill:#D8D5D5;}
	.st21{fill-rule:evenodd;clip-rule:evenodd;fill:#808080;}
	.st22{fill-rule:evenodd;clip-rule:evenodd;fill:#B5AFAF;}
	.st23{fill-rule:evenodd;clip-rule:evenodd;fill:#977000;}
	.st24{fill-rule:evenodd;clip-rule:evenodd;fill:#FFE9AC;}
	.st25{fill-rule:evenodd;clip-rule:evenodd;fill:#FFBF08;}
	.st26{fill:#FFFFFF;}
	.st27{fill-rule:evenodd;clip-rule:evenodd;fill:url(#SVGID_2_);}
	.st28{fill:#FF867F;stroke:#000000;stroke-miterlimit:10;}
</style>
<g transform="matrix(1,0,0,1,-8.841,-8.841)">
	<g id="Small-Cables-and-Pipes" transform="matrix(1.5625,0,0,1.5625,0,0)" serif:id="Small Cables and Pipes">
		<g transform="matrix(0.992546,-0.121869,0.121869,0.992546,-1075.63,610.44)">
			<path class="st0" d="M1228.2-390.2l-29.5-37.4l-7.3,5.7l31.6,39.3L1228.2-390.2z"/>
		</g>
		<g transform="matrix(0.992546,-0.121869,0.121869,0.992546,-1079.63,613.44)">
			<path class="st1" d="M1224.6-388.1l-28.7-36.4l-7.3,5.7l30.8,38.2L1224.6-388.1z"/>
		</g>
		<g transform="matrix(0.992546,-0.121869,0.121869,0.992546,-1083.63,616.44)">
			<path class="st2" d="M1221-386l-27.9-35.4l-7.3,5.7l30,37.2L1221-386z"/>
		</g>
		<g transform="matrix(0.992546,-0.121869,0.121869,0.992546,-1076.47,611.521)">
			<path class="st3" d="M1229.4-389.2l-31.4-38l-3.2,2.5l32,37.8L1229.4-389.2z"/>
		</g>
		<g transform="matrix(0.992546,-0.121869,0.121869,0.992546,-1080.47,613.521)">
			<path class="st4" d="M1225.8-388l-29.2-36.4l-3.2,2.5l29.9,36.2L1225.8-388z"/>
		</g>
		<g transform="matrix(0.992546,-0.121869,0.121869,0.992546,-1084.47,616.521)">
			<path class="st5" d="M1222.2-385.9l-28.4-35.4l-3.2,2.5l29,35.2L1222.2-385.9z"/>
		</g>
		<g transform="matrix(1,0,0,1,-1135.99,469.025)">
			<path class="st6" d="M1220.1-394.6c0.9-2,2.5-3.6,4.6-4.3c3.2-0.9,3.8,0,3.8,0l-30.4-30.1l-6.6,6.4L1220.1-394.6z"/>
		</g>
		<g transform="matrix(1,0,0,1,-1139.99,472.025)">
			<path class="st6" d="M1216.7-392.1c0.9-2,2.5-3.6,4.6-4.3c3.2-0.9,4.1,0,4.1,0l-29.8-29.2l-6.4,6.4L1216.7-392.1z"/>
		</g>
		<g transform="matrix(1,0,0,1,-1143.99,475.025)">
			<path class="st6" d="M1213.4-389.6c0.9-2,2.5-3.6,4.6-4.3c3.2-0.9,4.1,0,4.1,0l-29-28.3l-6.5,6.5L1213.4-389.6z"/>
		</g>
		<g transform="matrix(0.97437,0.224951,-0.224951,0.97437,52.692,44.179)">
			<path class="st7" d="M47.4,27.1c-1.8,0-3.3-1.8-3.3-3.9s1.5-3.9,3.3-3.9s3.3,1.8,3.3,3.9S49.2,27.1,47.4,27.1z"/>
		</g>
		<g transform="matrix(0.97437,0.224951,-0.224951,0.97437,52.692,44.179)">
			<path class="st8" d="M47.4,20.2c-1.3,0-2.3,1.4-2.3,3s1.1,3,2.3,3s2.4-1.4,2.4-3S48.7,20.2,47.4,20.2 M47.4,18.3
				c2.3,0,4.2,2.2,4.2,4.9s-1.9,4.9-4.2,4.9s-4.2-2.2-4.2-4.9S45.1,18.3,47.4,18.3z"/>
		</g>
		<g transform="matrix(0.97437,0.224951,-0.224951,0.97437,48.692,47.179)">
			<path class="st9" d="M44.7,30.3c-1.8,0-3.3-1.8-3.3-3.9s1.5-3.9,3.3-3.9s3.3,1.8,3.3,3.9S46.5,30.3,44.7,30.3z"/>
		</g>
		<g transform="matrix(0.97437,0.224951,-0.224951,0.97437,48.692,47.179)">
			<path class="st10" d="M44.7,23.4c-1.3,0-2.3,1.4-2.3,3s1.1,3,2.3,3s2.4-1.4,2.4-3S46,23.4,44.7,23.4 M44.7,21.5
				c2.3,0,4.2,2.2,4.2,4.9s-1.9,4.9-4.2,4.9s-4.2-2.2-4.2-4.9S42.4,21.5,44.7,21.5z"/>
		</g>
		<g transform="matrix(0.97437,0.224951,-0.224951,0.97437,44.692,50.179)">
			<path class="st11" d="M42,33.5c-1.8,0-3.3-1.8-3.3-3.9s1.5-3.9,3.3-3.9s3.3,1.8,3.3,3.9S43.8,33.5,42,33.5z"/>
		</g>
		<g transform="matrix(0.97437,0.224951,-0.224951,0.97437,44.692,50.179)">
			<path class="st12" d="M42,26.5c-1.3,0-2.3,1.4-2.3,3s1.1,3,2.3,3s2.4-1.4,2.4-3S43.3,26.5,42,26.5 M42,24.7
				c2.3,0,4.2,2.2,4.2,4.9s-1.9,4.9-4.2,4.9s-4.2-2.2-4.2-4.9S39.7,24.7,42,24.7z"/>
		</g>
	</g>
	<rect id="Extents" x="66.6" y="62.5" class="st13" width="86.3" height="83.3"/>
	<rect id="Position" x="66.6" y="62.5" class="st13" width="86.3" height="83.3"/>
</g>
<g transform="matrix(1,0,0,1,6.90000000000001,-17.444)">
	<g transform="matrix(0.2,0,0,0.2,11.8609,-6.93784)">
		<path class="st14" d="M643.7,572.5l-30.1,18L182.5,232.9v-27.5l30.1-18L643.7,545V572.5z"/>
	</g>
	<g transform="matrix(0.2,0,0,0.2,11.8609,-6.93784)">
		<path class="st15" d="M212.6,187.3l431.1,357.6l-30.1,18L182.5,205.3L212.6,187.3z"/>
	</g>
	<rect id="Position_1_" x="134.6" y="107.6" class="st13" width="6" height="3.6"/>
	<rect id="Extents_1_" x="48.4" y="30.5" class="st13" width="92.2" height="80.6"/>
</g>
<g transform="matrix(1,0,0,1,0.255999999999993,-13.468)">
	<g transform="matrix(0.2,0,0,0.2,8.5,-4.92702)">
		<path class="st14" d="M663.6,560.6l-91.8,54.9L140.7,257.8v-27.5l91.8-54.9L663.6,533V560.6z"/>
	</g>
	<g transform="matrix(0.2,0,0,0.2,8.5,-4.92702)">
		<path class="st16" d="M663.6,533l-91.8,55L140.7,230.3l91.8-54.9L663.6,533z"/>
	</g>
	<g transform="matrix(1,0,0,1,-1.06581e-14,0.743105)">
		<path class="st17" d="M137.7,99.2v1.4l-14.9,8.9l-2.9-2.4v-1.4L137.7,99.2z M130,92.8v1.4l-14.9,8.9l-2.9-2.4v-1.4L130,92.8z
			 M122.2,86.4v1.4l-14.9,8.9l-2.9-2.4v-1.4L122.2,86.4z M114.4,79.9v1.4l-14.9,8.9l-2.9-2.4v-1.4L114.4,79.9z M106.6,73.5v1.4
			l-14.9,8.9l-2.9-2.4V80L106.6,73.5z M98.9,67v1.4L84,77.3l-3-2.4v-1.4L98.9,67z M91.1,60.6V62l-14.9,8.9l-2.9-2.4v-1.4L91.1,60.6z
			 M83.3,54.1v1.4l-14.9,8.9L65.5,62v-1.4L83.3,54.1z M75.5,47.7v1.4L60.6,58l-2.9-2.4v-1.4L75.5,47.7z M67.7,41.2v1.4l-14.9,8.9
			l-2.9-2.4v-1.4L67.7,41.2z M60,34.8v1.4l-14.9,8.9l-2.9-2.4v-1.4L60,34.8z"/>
	</g>
	<g transform="matrix(1,0,0,1,-1.06581e-14,-0.0068325)">
		
			<linearGradient id="SVGID_1_" gradientUnits="userSpaceOnUse" x1="-1202.361" y1="-2.8348" x2="-1201.354" y2="-2.8348" gradientTransform="matrix(82.7737 67.8914 -67.8914 82.7737 99380.0312 81901.7734)">
			<stop  offset="0" style="stop-color:#D3AB7E"/>
			<stop  offset="1" style="stop-color:#B08A61"/>
		</linearGradient>
		<path class="st18" d="M134.8,97.6l2.9,2.4l-14.9,8.9l-2.9-2.4L134.8,97.6z M127,91.1l2.9,2.4l-14.9,8.9l-2.9-2.4L127,91.1z
			 M119.3,84.7l2.9,2.4L107.3,96l-2.9-2.4L119.3,84.7z M111.5,78.2l2.9,2.4l-14.9,8.9l-2.9-2.4L111.5,78.2z M103.7,71.8l2.9,2.4
			l-14.9,8.9l-2.9-2.4L103.7,71.8z M95.9,65.3l2.9,2.4l-14.8,9l-3-2.5L95.9,65.3z M88.1,58.9l2.9,2.4l-14.9,8.9l-2.9-2.4L88.1,58.9z
			 M80.4,52.5l2.9,2.4l-14.9,8.9l-2.9-2.4L80.4,52.5z M72.6,46l2.9,2.4l-14.9,8.9l-2.9-2.4L72.6,46z M64.8,39.6l2.9,2.4l-14.9,8.9
			l-2.9-2.4L64.8,39.6z M57,33.1l2.9,2.4L45,44.4L42.2,42L57,33.1z"/>
	</g>
	<g transform="matrix(0.2,0,0,0.2,8.5,-4.92702)">
		<path class="st19" d="M171.7,198.6l431.1,357.6v11.2l-6.3,3.8l-431-357.6v-11.2L171.7,198.6z"/>
	</g>
	<g transform="matrix(0.2,0,0,0.2,8.5,-4.92702)">
		<path class="st20" d="M171.7,198.6l431.1,357.6l-6.3,3.8v11.2l-431-357.6v-11.2L171.7,198.6z"/>
	</g>
	<g transform="matrix(0.2,0,0,0.2,8.5,-4.92702)">
		<path class="st21" d="M165.5,202.3l431,357.7v11.2l-431-357.6V202.3z"/>
	</g>
	<g transform="matrix(0.2,0,0,0.2,8.5,-4.92702)">
		<path class="st19" d="M208.2,176.8l431.1,357.6v11.2l-6.3,3.8L201.9,191.8v-11.2L208.2,176.8z"/>
	</g>
	<g transform="matrix(0.2,0,0,0.2,8.5,-4.92702)">
		<path class="st20" d="M208.2,176.8l431.1,357.6l-6.3,3.8v11.2L201.9,191.8v-11.2L208.2,176.8z"/>
	</g>
	<g transform="matrix(0.2,0,0,0.2,8.5,-4.92702)">
		<path class="st21" d="M201.9,180.5L633,538.2v11.2L201.9,191.8V180.5z"/>
	</g>
	<rect id="Position_2_" x="122.9" y="107.2" class="st13" width="18.4" height="11"/>
	<rect id="Extents_2_" x="36.6" y="30.2" class="st13" width="104.6" height="88"/>
</g>
<g transform="matrix(1,0,0,1,-6.11200000000001,-10.552)">
	<g transform="matrix(0.2,0,0,0.2,13.0376,-6.7477)">
		<path class="st14" d="M581,610l-25.1,15L124.8,267.4v-27.5l23.6-14.1L581,582.5V610z"/>
	</g>
	<g transform="matrix(0.2,0,0,0.2,13.0376,-6.7477)">
		<path class="st16" d="M149.9,224.9L581,582.5l-25.1,15L124.8,239.8L149.9,224.9z"/>
	</g>
	<g transform="matrix(0.2,0,0,0.2,13.0376,-6.7477)">
		<path class="st21" d="M549.2,560l4.5,3.7v11.2l-4.7,2.8l-4.5-3.7v-11.2L549.2,560z"/>
	</g>
	<g transform="matrix(0.2,0,0,0.2,13.0376,-6.7477)">
		<path class="st22" d="M544.4,574v-11.2l4.5,3.7v11.2L544.4,574z"/>
	</g>
	<g transform="matrix(0.2,0,0,0.2,13.0376,-6.7477)">
		<path class="st21" d="M150.5,229.3l4.5,3.7v11.2l-4.7,2.8l-4.5-3.7v-11.2L150.5,229.3z"/>
	</g>
	<g transform="matrix(0.2,0,0,0.2,13.0376,-6.7477)">
		<path class="st22" d="M145.8,243.3v-11.2l4.5,3.7V247L145.8,243.3z"/>
	</g>
	<g transform="matrix(0.2,0,0,0.2,13.0376,-6.7477)">
		<path class="st21" d="M277.6,334.7l4.5,3.7v11.2l-4.7,2.8l-4.5-3.7v-11.2L277.6,334.7z"/>
	</g>
	<g transform="matrix(0.2,0,0,0.2,13.0376,-6.7477)">
		<path class="st22" d="M272.9,348.8v-11.2l4.5,3.7v11.2L272.9,348.8z"/>
	</g>
	<g transform="matrix(0.2,0,0,0.2,13.0376,-6.7477)">
		<path class="st21" d="M419.1,452.1l4.5,3.7V467l-4.7,2.8l-4.5-3.7V455L419.1,452.1z"/>
	</g>
	<g transform="matrix(0.2,0,0,0.2,13.0376,-6.7477)">
		<path class="st22" d="M414.4,466.2V455l4.5,3.7v11.2L414.4,466.2z"/>
	</g>
	<g transform="matrix(0.2,0,0,0.2,13.0376,-6.7477)">
		<path class="st23" d="M138.9,208.4l429.1,356v11.2l-4.7,2.8l-429.1-356v-11.2L138.9,208.4z"/>
	</g>
	<g transform="matrix(0.2,0,0,0.2,13.0376,-6.7477)">
		<path class="st24" d="M138.9,208.4l429.1,356l-4.7,2.8v11.2l-429.1-356v-11.2L138.9,208.4z"/>
	</g>
	<g transform="matrix(0.2,0,0,0.2,13.0376,-6.7477)">
		<path class="st25" d="M134.2,211.3l429.1,356v11.2l-429.1-356C134.2,222.5,134.2,211.3,134.2,211.3z"/>
	</g>
	<rect id="Position_3_" x="124.2" y="115.3" class="st13" width="5" height="3"/>
	<rect id="Extents_3_" x="38" y="34.9" class="st13" width="91.2" height="83.3"/>
</g>
<g transform="matrix(1,0,0,1,-1.1095,-12.658)">
	<g transform="matrix(1,0,0,1,-15692.6,-2392.75)">
		<path class="st26" d="M15767.2,2452l2.6,11.7l3.3-1.9l12.1,11.2l5.7-3.2l-11.9-10.8l3.9-2.3L15767.2,2452z"/>
	</g>
	<rect id="Position_4_" x="121.7" y="107.9" class="st13" width="18.4" height="11"/>
	<rect id="Extents_4_" x="35.5" y="30.8" class="st13" width="104.6" height="88"/>
</g>
<g transform="matrix(1,0,0,1,-12.48,-5.84800000000001)">
	<g transform="matrix(0.2,0,0,0.2,8.5,-4.92702)">
		<path class="st14" d="M610.4,592.4l-91.8,54.9l-431-357.7v-27.5l91.8-54.9l431.1,357.6v27.6H610.4z"/>
	</g>
	<g transform="matrix(0.2,0,0,0.2,8.5,-4.92702)">
		<path class="st16" d="M610.4,564.8l-91.8,54.9l-431-357.6l91.8-54.9L610.4,564.8z"/>
	</g>
	<g transform="matrix(1,0,0,1,-1.06581e-14,0.743105)">
		<path class="st17" d="M127.1,105.6v1.4l-14.9,8.9l-2.9-2.4v-1.4L127.1,105.6z M119.3,99.2v1.4l-14.9,8.9l-2.9-2.4v-1.4L119.3,99.2
			z M111.6,92.7v1.4L96.7,103l-2.9-2.4v-1.4L111.6,92.7z M103.8,86.3v1.4l-14.9,8.9L86,94.1v-1.4L103.8,86.3z M96,79.8v1.4
			l-14.9,8.9l-2.9-2.4v-1.4L96,79.8z M88.2,73.4v1.4l-14.9,8.9l-2.9-2.4v-1.4L88.2,73.4z M80.4,66.9v1.4l-14.9,8.9l-2.9-2.4v-1.4
			L80.4,66.9z M72.7,60.5v1.4l-14.9,8.9l-2.9-2.4V67L72.7,60.5z M64.9,54.1v1.4L50,64.3l-2.9-2.4v-1.4L64.9,54.1z M57.1,47.6V49
			l-14.9,8.9l-2.9-2.4v-1.4L57.1,47.6z M49.3,41.2v1.4l-14.9,8.9L31.5,49v-1.4L49.3,41.2z"/>
	</g>
	<g transform="matrix(1,0,0,1,-1.06581e-14,-0.0068325)">
		
			<linearGradient id="SVGID_2_" gradientUnits="userSpaceOnUse" x1="-1176.8896" y1="-2.8335" x2="-1175.8827" y2="-2.8335" gradientTransform="matrix(82.7737 67.8914 -67.8914 82.7737 97261.1484 80178.7109)">
			<stop  offset="0" style="stop-color:#D3AB7E"/>
			<stop  offset="1" style="stop-color:#B08A61"/>
		</linearGradient>
		<path class="st27" d="M124.2,103.9l2.9,2.4l-14.9,8.9l-2.9-2.4L124.2,103.9z M116.4,97.5l2.9,2.4l-14.9,8.9l-2.9-2.4L116.4,97.5z
			 M108.6,91l2.9,2.4l-14.9,8.9l-2.9-2.4L108.6,91z M100.8,84.6l2.9,2.4l-14.9,8.9L86,93.5L100.8,84.6z M93.1,78.1l2.9,2.4
			l-14.9,8.9L78.2,87L93.1,78.1z M85.3,71.7l2.9,2.4L73.3,83l-2.9-2.4L85.3,71.7z M77.5,65.3l2.9,2.4l-14.9,8.9l-2.9-2.4L77.5,65.3z
			 M69.7,58.8l2.9,2.4l-14.9,8.9l-2.9-2.4L69.7,58.8z M62,52.4l2.9,2.4L50,63.7l-2.9-2.4L62,52.4z M54.2,45.9l2.9,2.4l-14.9,8.9
			l-2.9-2.4L54.2,45.9z M46.4,39.5l2.9,2.4l-14.9,8.9l-2.9-2.4L46.4,39.5z"/>
	</g>
	<g transform="matrix(0.2,0,0,0.2,8.5,-4.92702)">
		<path class="st19" d="M118.6,230.4L549.7,588v11.2l-6.3,3.8L112.3,245.4v-11.2L118.6,230.4z"/>
	</g>
	<g transform="matrix(0.2,0,0,0.2,8.5,-4.92702)">
		<path class="st20" d="M118.6,230.4L549.7,588l-6.3,3.8V603L112.3,245.4v-11.2L118.6,230.4z"/>
	</g>
	<g transform="matrix(0.2,0,0,0.2,8.5,-4.92702)">
		<path class="st21" d="M112.3,234.1l431.1,357.6V603L112.3,245.4V234.1z"/>
	</g>
	<g transform="matrix(0.2,0,0,0.2,8.5,-4.92702)">
		<path class="st19" d="M155,208.6l431.1,357.6v11.2l-6.3,3.8L148.7,223.6v-11.2L155,208.6z"/>
	</g>
	<g transform="matrix(0.2,0,0,0.2,8.5,-4.92702)">
		<path class="st20" d="M155,208.6l431.1,357.6l-6.3,3.8v11.2L148.7,223.6v-11.2L155,208.6z"/>
	</g>
	<g transform="matrix(0.2,0,0,0.2,8.5,-4.92702)">
		<path class="st21" d="M148.7,212.3L579.8,570v11.2L148.7,223.6V212.3z"/>
	</g>
	<rect id="Position_5_" x="112.2" y="113.5" class="st13" width="18.4" height="11"/>
	<rect id="Extents_5_" x="26" y="36.5" class="st13" width="104.6" height="88"/>
</g>
<g transform="matrix(1,0,0,1,-18.848,-2.932)">
	<g transform="matrix(0.2,0,0,0.2,13.0376,-6.7477)">
		<path class="st14" d="M527.8,641.8l-25.1,15l-431-357.6v-27.5l23.6-14.1l432.5,356.8V641.8z"/>
	</g>
	<g transform="matrix(0.2,0,0,0.2,13.0376,-6.7477)">
		<path class="st16" d="M96.7,256.7l431.1,357.6l-25.1,15l-431-357.7L96.7,256.7z"/>
	</g>
	<g transform="matrix(0.2,0,0,0.2,13.0376,-6.7477)">
		<path class="st21" d="M496,591.8l4.5,3.7v11.2l-4.7,2.8l-4.5-3.7v-11.2L496,591.8z"/>
	</g>
	<g transform="matrix(0.2,0,0,0.2,13.0376,-6.7477)">
		<path class="st22" d="M491.3,605.8v-11.2l4.5,3.7v11.2L491.3,605.8z"/>
	</g>
	<g transform="matrix(0.2,0,0,0.2,13.0376,-6.7477)">
		<path class="st21" d="M97.3,261l4.5,3.7V276l-4.7,2.8l-4.5-3.7v-11.2L97.3,261z"/>
	</g>
	<g transform="matrix(0.2,0,0,0.2,13.0376,-6.7477)">
		<path class="st22" d="M92.6,275.1v-11.2l4.5,3.7v11.2L92.6,275.1z"/>
	</g>
	<g transform="matrix(0.2,0,0,0.2,13.0376,-6.7477)">
		<path class="st21" d="M224.5,366.5l4.5,3.7v11.2l-4.7,2.8l-4.5-3.7v-11.2L224.5,366.5z"/>
	</g>
	<g transform="matrix(0.2,0,0,0.2,13.0376,-6.7477)">
		<path class="st22" d="M219.8,380.6v-11.2l4.5,3.7v11.2L219.8,380.6z"/>
	</g>
	<g transform="matrix(0.2,0,0,0.2,13.0376,-6.7477)">
		<path class="st21" d="M366,483.9l4.5,3.7v11.2l-4.7,2.8l-4.5-3.7v-11.2L366,483.9z"/>
	</g>
	<g transform="matrix(0.2,0,0,0.2,13.0376,-6.7477)">
		<path class="st22" d="M361.3,498v-11.2l4.5,3.7v11.2L361.3,498z"/>
	</g>
	<g transform="matrix(0.2,0,0,0.2,13.0376,-6.7477)">
		<path class="st23" d="M85.8,240.2l429.1,356v11.2l-4.7,2.8l-429.1-356V243L85.8,240.2z"/>
	</g>
	<g transform="matrix(0.2,0,0,0.2,13.0376,-6.7477)">
		<path class="st24" d="M85.8,240.2l429.1,356l-4.7,2.8v11.2l-429.1-356V243L85.8,240.2z"/>
	</g>
	<g transform="matrix(0.2,0,0,0.2,13.0376,-6.7477)">
		<path class="st25" d="M81.1,243.1l429.1,356v11.2l-429.1-356C81.1,254.3,81.1,243.1,81.1,243.1z"/>
	</g>
	<rect id="Position_6_" x="113.6" y="121.6" class="st13" width="5" height="3"/>
	<rect id="Extents_6_" x="27.4" y="41.3" class="st13" width="91.2" height="83.3"/>
</g>
<g transform="matrix(1,0,0,1,-13.8455,-5.03800000000001)">
	<g transform="matrix(1,0,0,1,-15692.6,-2392.75)">
		<path class="st26" d="M15756.6,2458.4l2.6,11.7l3.3-1.9l12.1,11.2l5.7-3.2l-11.9-10.8l3.9-2.3L15756.6,2458.4z"/>
	</g>
	<rect id="Position_7_" x="111.1" y="114.2" class="st13" width="18.4" height="11"/>
	<rect id="Extents_7_" x="24.9" y="37.2" class="st13" width="104.6" height="88"/>
</g>
<g transform="matrix(1,0,0,1,-21.856,-0.239000000000001)">
	<g transform="matrix(0.2,0,0,0.2,11.8609,-6.93784)">
		<path class="st14" d="M523.7,644.3l-30.1,18L62.5,304.7v-27.5l30.1-18l431.1,357.6V644.3z"/>
	</g>
	<g transform="matrix(0.2,0,0,0.2,11.8609,-6.93784)">
		<path class="st15" d="M92.6,259.1l431.1,357.6l-30.1,18L62.5,277.1L92.6,259.1z"/>
	</g>
	<rect id="Position_8_" x="110.6" y="121.9" class="st13" width="6" height="3.6"/>
	<rect id="Extents_8_" x="24.4" y="44.9" class="st13" width="92.2" height="80.6"/>
</g>
<g>
	<path class="st28" d="M115,34.125V8.641C115,6.82,116.294,5,117.589,5l0,0h2.523v29.125H115z"/>
	<path class="st28" d="M123.642,34.125v-5.178h15.533v-6.472h-11.65c-1.942,0-3.883-1.942-3.883-3.883l0,0V8.883
		c0-1.942,1.942-3.883,3.883-3.883l0,0H145v5.178h-15.533v6.472h11.65c1.942,0,3.883,1.942,3.883,3.883l0,0v9.708
		c0,1.942-1.942,3.883-3.883,3.883l0,0L123.642,34.125L123.642,34.125z"/>
</g>
</svg>
