<?xml version="1.0" encoding="utf-8"?>
<!-- Generator: Adobe Illustrator 25.2.0, SVG Export Plug-In . SVG Version: 6.00 Build 0)  -->
<svg version="1.1" id="Layer_1" xmlns="http://www.w3.org/2000/svg" xmlns:xlink="http://www.w3.org/1999/xlink" x="0px" y="0px"
	 viewBox="0 0 150 98" style="enable-background:new 0 0 150 98;" xml:space="preserve">
<style type="text/css">
	.st0{clip-path:url(#SVGID_2_);}
	.st1{fill:#231E2E;}
	.st2{fill:#707070;}
	.st3{fill:#DA6F48;}
	.st4{fill:none;stroke:#3C3B3B;stroke-width:2.6786;stroke-miterlimit:10.7143;}
	.st5{fill:none;stroke:#2D2B2B;stroke-width:2.6786;stroke-miterlimit:10.7143;}
	.st6{fill:#384554;}
	.st7{fill:#314750;}
	.st8{fill:#FF867F;stroke:#000000;stroke-miterlimit:10;}
</style>
<g>
	<g>
		<g>
			<defs>
				<rect id="SVGID_1_" x="2.5" y="21" width="145" height="70"/>
			</defs>
			<clipPath id="SVGID_2_">
				<use xlink:href="#SVGID_1_"  style="overflow:visible;"/>
			</clipPath>
			<g class="st0">
				<g id="Subway">
					<g id="SubMetro">
						<polygon id="Rectangle_828" points="7.5,71 142.5,71 142.5,71 						"/>
						<path id="Path_178" class="st1" d="M27,69.3l2.5,7.3h17.1l3.3-7.3H27z"/>
						<path id="Path_2076" class="st1" d="M102.1,69.3l2.5,7.3h17.1l3.3-7.3H102.1z"/>
						<rect id="Rectangle_827" x="57.5" y="71" width="37.5" height="2.5"/>
						<circle id="Ellipse_494" class="st2" cx="28.7" cy="74.8" r="3.7"/>
						<circle id="Ellipse_588" class="st2" cx="103.7" cy="74.8" r="3.7"/>
						<circle id="Ellipse_495" class="st2" cx="48.8" cy="74.8" r="3.7"/>
						<circle id="Ellipse_587" class="st2" cx="123.7" cy="74.8" r="3.7"/>
						<path id="Path_180" class="st3" d="M19.1,34.5h108.6c4.6,0,11.5,5.1,11.5,8.5v26.5H8.6V43C8.6,39.6,14.5,34.5,19.1,34.5z"/>
						<g id="Rectangle_819">
							<rect x="57.5" y="38.5" class="st3" width="22.5" height="32.5"/>
							<rect x="58.8" y="39.8" class="st4" width="20" height="30"/>
						</g>
						<g id="Rectangle_821">
							<rect x="75" y="38.5" class="st3" width="20" height="32.5"/>
							<rect x="76.2" y="39.8" class="st5" width="17.5" height="30"/>
						</g>
						<path id="Rectangle_820" class="st6" d="M65,43.5h5c2.8,0,5,2.2,5,5v5c0,2.8-2.2,5-5,5h-5c-2.8,0-5-2.2-5-5v-5
							C60,45.7,62.2,43.5,65,43.5z"/>
						<path id="Rectangle_822" class="st6" d="M82.5,43.5h5c2.8,0,5,2.2,5,5v5c0,2.8-2.2,5-5,5h-5c-2.8,0-5-2.2-5-5v-5
							C77.5,45.7,79.8,43.5,82.5,43.5z"/>
						<path id="Rectangle_823" class="st7" d="M32.5,41H45c2.8,0,5,2.2,5,5v7.5c0,2.8-2.2,5-5,5H32.5c-2.8,0-5-2.2-5-5V46
							C27.5,43.2,29.7,41,32.5,41z"/>
						<path id="Rectangle_825" class="st7" d="M17.5,41L17.5,41c2.8,0,5,2.2,5,5v7.5c0,2.8-2.2,5-5,5l0,0c-2.8,0-5-2.2-5-5V46
							C12.5,43.2,14.7,41,17.5,41z"/>
						<path id="Rectangle_826" class="st7" d="M130,41L130,41c2.8,0,5,2.2,5,5v7.5c0,2.8-2.2,5-5,5l0,0c-2.8,0-5-2.2-5-5V46
							C125,43.2,127.3,41,130,41z"/>
						<path id="Rectangle_824" class="st7" d="M105,41h10c2.8,0,5,2.2,5,5v7.5c0,2.8-2.2,5-5,5h-10c-2.8,0-5-2.2-5-5V46
							C100,43.2,102.2,41,105,41z"/>
					</g>
				</g>
			</g>
		</g>
	</g>
</g>
<g>
	<path class="st8" d="M120,29.271V8.034C120,6.517,121.078,5,122.158,5l0,0h2.102v24.271H120z"/>
	<path class="st8" d="M127.202,29.271v-4.315h12.944v-5.393h-9.708c-1.618,0-3.236-1.618-3.236-3.236l0,0V8.236
		c0-1.618,1.618-3.236,3.236-3.236l0,0H145v4.315h-12.944v5.393h9.708c1.618,0,3.236,1.618,3.236,3.236l0,0v8.09
		c0,1.618-1.618,3.236-3.236,3.236l0,0L127.202,29.271L127.202,29.271z"/>
</g>
</svg>
